<svg id="Calque_1" data-name="Calque 1" xmlns="http://www.w3.org/2000/svg" viewBox="0 0 172.85 47.9"><title>starphish logo noir</title><path d="M53.33,39.58a5.3,5.3,0,0,1-2.49-4.81,4.78,4.78,0,0,1,.63-2.64,2,2,0,0,1,1.74-.91,2.1,2.1,0,0,1,1.37.44,1.35,1.35,0,0,1,.53,1.12A5,5,0,0,1,55,33.87a3.08,3.08,0,0,1,0,.43q0,.33,0,.66A2.2,2.2,0,0,0,56.43,37a9.29,9.29,0,0,0,4,.69,7.59,7.59,0,0,0,4.14-1,3,3,0,0,0,1.34-2.6,2.58,2.58,0,0,0-.69-1.82,5.92,5.92,0,0,0-1.75-1.26c-.69-.34-1.65-.76-2.9-1.26A31.08,31.08,0,0,1,56.67,28a8.35,8.35,0,0,1-2.59-2.29,6,6,0,0,1-1-3.6,7,7,0,0,1,1.2-4,7.67,7.67,0,0,1,3.45-2.71,13.8,13.8,0,0,1,5.31-1,12.82,12.82,0,0,1,4.17.67,6.88,6.88,0,0,1,3,2,5.07,5.07,0,0,1,1.13,3.36,5.76,5.76,0,0,1-.59,3,2,2,0,0,1-3.09.5,1.53,1.53,0,0,1-.55-1.18,6.68,6.68,0,0,1,.09-1.09c.07-.63.1-1,.1-1.19a2.17,2.17,0,0,0-1.28-2,6.67,6.67,0,0,0-3.17-.68,7.21,7.21,0,0,0-4.1,1,3.16,3.16,0,0,0-1.41,2.75,3,3,0,0,0,.73,2A5.91,5.91,0,0,0,59.86,25c.72.37,1.74.82,3,1.34a38.57,38.57,0,0,1,3.84,1.83,7.54,7.54,0,0,1,2.44,2.12,5.25,5.25,0,0,1,1,3.29,6.53,6.53,0,0,1-2.72,5.64,12.68,12.68,0,0,1-7.46,2A12.21,12.21,0,0,1,53.33,39.58Z" transform="translate(-5.31 -7.24)"/><path d="M87.06,34.33a1.84,1.84,0,0,1,.23,1,2.79,2.79,0,0,1-.59,1.93A13.18,13.18,0,0,1,83.78,40,6.31,6.31,0,0,1,80.13,41q-6.33,0-6.35-8.93a26,26,0,0,1,.1-2.78H72.66A1.72,1.72,0,0,1,71.4,29a1.57,1.57,0,0,1-.33-1.09c0-1.17.47-1.74,1.4-1.71h1.77a30,30,0,0,1,1.62-6.26,14.15,14.15,0,0,1,2.61-4.51,4.51,4.51,0,0,1,3.31-1.68,2.31,2.31,0,0,1,2.06,1.15,5.17,5.17,0,0,1,.75,2.89,10.91,10.91,0,0,1-4,8.41h3.49a1,1,0,0,1,.71.22,1.07,1.07,0,0,1,.22.81c0,1.43-1.17,2.14-3.52,2.14H77.67q-.06,1.56-.06,2.43a9.83,9.83,0,0,0,.76,4.55,2.61,2.61,0,0,0,2.42,1.31,3.68,3.68,0,0,0,2.36-.81,17.44,17.44,0,0,0,2.43-2.43,1.12,1.12,0,0,1,.84-.44A.73.73,0,0,1,87.06,34.33ZM79.93,17.88a17,17,0,0,0-1.09,3.25A42.56,42.56,0,0,0,78,25.72a10.51,10.51,0,0,0,2.75-3.59,8.69,8.69,0,0,0,.92-3.6c0-1.22-.23-1.84-.69-1.84S80.32,17.13,79.93,17.88Z" transform="translate(-5.31 -7.24)"/><path d="M85.52,39.66A5.65,5.65,0,0,1,84.37,36a10.18,10.18,0,0,1,1.15-4.71,10,10,0,0,1,3.06-3.58,7,7,0,0,1,4.07-1.36,1.23,1.23,0,0,1,.92.27,2.28,2.28,0,0,1,.39,1,7.85,7.85,0,0,1,1.37-.13c1,0,1.52.37,1.52,1.09a21.75,21.75,0,0,1-.47,3.12,31.36,31.36,0,0,0-.71,5,1.14,1.14,0,0,0,.23.74.73.73,0,0,0,.61.29,2.36,2.36,0,0,0,1.43-.77,25.26,25.26,0,0,0,2.27-2.47,1.12,1.12,0,0,1,.84-.44.73.73,0,0,1,.64.37,1.84,1.84,0,0,1,.23,1,2.79,2.79,0,0,1-.59,1.93A15.62,15.62,0,0,1,98.62,40a4.54,4.54,0,0,1-2.77,1.09A2.88,2.88,0,0,1,94,40.4a4.28,4.28,0,0,1-1.29-1.92A4.7,4.7,0,0,1,88.6,41.1,3.78,3.78,0,0,1,85.52,39.66ZM91,37.13a5.25,5.25,0,0,0,.9-2.15l1.15-5.73a3.81,3.81,0,0,0-2.41,1,6.69,6.69,0,0,0-1.76,2.51,8.7,8.7,0,0,0-.65,3.3,2.19,2.19,0,0,0,.39,1.43,1.31,1.31,0,0,0,1.07.47A1.7,1.7,0,0,0,91,37.13Z" transform="translate(-5.31 -7.24)"/><path d="M100,39.81a12,12,0,0,1-.48-4,25.67,25.67,0,0,1,1.15-7.68,2.38,2.38,0,0,1,.92-1.32,3.31,3.31,0,0,1,1.79-.42,1.84,1.84,0,0,1,.87.15.66.66,0,0,1,.27.59,11.39,11.39,0,0,1-.47,2.25c-.21.83-.37,1.55-.5,2.17s-.24,1.54-.31,2.31a17.54,17.54,0,0,1,2.28-4.35A9.33,9.33,0,0,1,108,27.13a4.66,4.66,0,0,1,2.26-.71,1.78,1.78,0,0,1,2,1.53,1.85,1.85,0,0,1,0,.47,15,15,0,0,1-.28,2,12.05,12.05,0,0,0-.25,1.56c0,.72.26,1.09.78,1.09a3.75,3.75,0,0,0,2.24-1.37,1.23,1.23,0,0,1,.84-.41.75.75,0,0,1,.64.36,1.68,1.68,0,0,1,.23,1,2.49,2.49,0,0,1-.62,1.81,8.34,8.34,0,0,1-2,1.54,5.07,5.07,0,0,1-2.47.63,3.4,3.4,0,0,1-2.51-.84,3,3,0,0,1-.86-2.27,4.2,4.2,0,0,1,.1-.93q.06-.63.06-.84c0-.33-.11-.5-.34-.5s-.72.35-1.23,1A15.41,15.41,0,0,0,105.06,35a22.23,22.23,0,0,0-1.22,3.61,4.83,4.83,0,0,1-.79,2,1.75,1.75,0,0,1-1.42.52A1.69,1.69,0,0,1,100,39.81Z" transform="translate(-5.31 -7.24)"/><path d="M130.83,34.33a1.84,1.84,0,0,1,.23,1,2.76,2.76,0,0,1-.59,2A13.48,13.48,0,0,1,127.59,40a6,6,0,0,1-3.5,1.06,3.37,3.37,0,0,1-2.68-1.18,6.9,6.9,0,0,1-3.7,1.18,37.51,37.51,0,0,1-1.84,10.07q-1.4,4-4.2,4a2.78,2.78,0,0,1-2.49-1.21,6,6,0,0,1-.81-3.37,22.46,22.46,0,0,1,1.4-7.11,48.71,48.71,0,0,1,4.33-9q0-4.54-.07-6.32a1.6,1.6,0,0,1,.72-1.43,3.18,3.18,0,0,1,1.87-.53,1.52,1.52,0,0,1,.95.26,1.53,1.53,0,0,1,.32,1v1.15a7,7,0,0,1,2-1.79,4.14,4.14,0,0,1,2-.55,3.47,3.47,0,0,1,2.85,1.41,5.69,5.69,0,0,1,1.1,3.67,10,10,0,0,1-.52,3.21,10.44,10.44,0,0,1-1.47,2.83,4.09,4.09,0,0,0,1.09.19,3,3,0,0,0,2-.75,17.66,17.66,0,0,0,2.4-2.49,1.12,1.12,0,0,1,.84-.44A.75.75,0,0,1,130.83,34.33ZM113.32,48.42a74.73,74.73,0,0,0,.71-9.1,46.6,46.6,0,0,0-2.11,5.94,18.87,18.87,0,0,0-.78,4.77,4.1,4.1,0,0,0,.23,1.52c.16.35.34.53.55.53C112.47,52.13,112.94,50.86,113.32,48.42Zm6.61-11.58a6.89,6.89,0,0,0,1.54-2.43,7.87,7.87,0,0,0,.56-3,2.24,2.24,0,0,0-.37-1.42,1.21,1.21,0,0,0-1-.48c-.74,0-1.65.79-2.7,2.36v6.21A4,4,0,0,0,119.93,36.84Z" transform="translate(-5.31 -7.24)"/><path d="M146.47,34.33a2,2,0,0,1,.23,1,2.79,2.79,0,0,1-.59,1.93A16.43,16.43,0,0,1,143.17,40,5.79,5.79,0,0,1,139.73,41a3,3,0,0,1-2.4-.92,3.92,3.92,0,0,1-.86-2.63,20.61,20.61,0,0,1,.44-3.11,15.41,15.41,0,0,0,.4-2.71c0-.33-.11-.5-.34-.5s-.66.35-1.15,1a16,16,0,0,0-1.5,2.76,22.19,22.19,0,0,0-1.21,3.61A2.82,2.82,0,0,1,130.18,41a1.19,1.19,0,0,1-1.23-.67,7,7,0,0,1-.29-2.41V33.86a54.25,54.25,0,0,1,1-10,30.08,30.08,0,0,1,3-8.73q1.91-3.51,4.59-3.53a2.76,2.76,0,0,1,2.32,1.23,5.3,5.3,0,0,1,.92,3.23,13.59,13.59,0,0,1-1.83,6.52,41.5,41.5,0,0,1-6,7.89c-.06,1.08-.09,2.19-.09,3.34a18,18,0,0,1,2.28-4.32,9.4,9.4,0,0,1,2.47-2.36,4.66,4.66,0,0,1,2.26-.71,1.78,1.78,0,0,1,2,1.53,1.85,1.85,0,0,1,0,.47,24.15,24.15,0,0,1-.68,4.39,23,23,0,0,0-.59,3.58c0,.83.3,1.25.9,1.25a2.38,2.38,0,0,0,1.48-.77A25.47,25.47,0,0,0,145,34.4a1.12,1.12,0,0,1,.84-.44A.74.74,0,0,1,146.47,34.33Zm-11.13-18A27.29,27.29,0,0,0,134,20.65q-.64,2.94-1,5.93a21.69,21.69,0,0,0,3.19-4.95,11.53,11.53,0,0,0,1.26-4.85,4.43,4.43,0,0,0-.21-1.53c-.15-.35-.36-.53-.63-.53s-.84.54-1.29,1.61Z" transform="translate(-5.31 -7.24)"/><path d="M145.06,39.63a7,7,0,0,1-.92-3.8,24.13,24.13,0,0,1,.36-3.6,34,34,0,0,1,.91-4.09,2.69,2.69,0,0,1,.75-1.37,2.44,2.44,0,0,1,1.49-.37q1.59,0,1.59,1.05a23.35,23.35,0,0,1-.59,3.62,27.93,27.93,0,0,0-.75,4.63,3.53,3.53,0,0,0,.25,1.44.89.89,0,0,0,.84.5,2.27,2.27,0,0,0,1.4-.78,27.56,27.56,0,0,0,2.25-2.46,1.12,1.12,0,0,1,.84-.44.73.73,0,0,1,.64.37,2,2,0,0,1,.23,1,2.79,2.79,0,0,1-.59,1.93c-2.06,2.52-4,3.77-5.76,3.77A3.24,3.24,0,0,1,145.06,39.63Zm1.23-15.9a2.22,2.22,0,0,1-.66-1.69,2.3,2.3,0,0,1,.86-1.82,3.24,3.24,0,0,1,2.13-.73,3,3,0,0,1,1.87.56,1.89,1.89,0,0,1,.71,1.58,2.51,2.51,0,0,1-.81,2,3,3,0,0,1-2.14.73A2.7,2.7,0,0,1,146.29,23.73Z" transform="translate(-5.31 -7.24)"/><path d="M155.14,41a2.21,2.21,0,0,1-.86-1.68,1.9,1.9,0,0,1,.6-1.4,2.35,2.35,0,0,1,1.74-.6,7.45,7.45,0,0,1,.95.08l.82.11A4.27,4.27,0,0,0,158,36a8.42,8.42,0,0,0-.83-1.38q-.48-.66-.93-1.17a20.06,20.06,0,0,1-1.92,3,21.6,21.6,0,0,1-2.07,2.31,1.68,1.68,0,0,1-1.18.56,1,1,0,0,1-.81-.36,1.31,1.31,0,0,1-.31-.89,1.76,1.76,0,0,1,.44-1.15l.4-.5A36.53,36.53,0,0,0,153.41,33c.36-.6.77-1.4,1.25-2.41s.94-2.05,1.4-3.13a2.41,2.41,0,0,1,2.46-1.37,3.31,3.31,0,0,1,1.21.16.52.52,0,0,1,.34.5,2,2,0,0,1-.12.59,4.79,4.79,0,0,1-.34.81,4.74,4.74,0,0,0-.56,1.9,2.31,2.31,0,0,0,.32,1,12.68,12.68,0,0,0,1,1.4,20.66,20.66,0,0,1,1.51,2.22,4,4,0,0,1,.51,2,6.36,6.36,0,0,1-.06.87,9.93,9.93,0,0,0,3.58-3.14,1.12,1.12,0,0,1,.84-.44.73.73,0,0,1,.64.37,2,2,0,0,1,.23,1,3,3,0,0,1-.59,1.93,9.35,9.35,0,0,1-3,2.63,8.5,8.5,0,0,1-3.51.77,4.4,4.4,0,0,1-3,1A3.61,3.61,0,0,1,155.14,41Z" transform="translate(-5.31 -7.24)"/><path d="M177.65,26.91a2,2,0,0,1,.51,1.51,23.91,23.91,0,0,1-.34,3c-.21,1.27-.37,2.47-.5,3.6s-.18,2.52-.18,3.78a2.38,2.38,0,0,1-.49,1.69,2,2,0,0,1-1.57.52,1.88,1.88,0,0,1-1.49-.53,2.37,2.37,0,0,1-.47-1.59,29.85,29.85,0,0,1,.44-4.11,30.77,30.77,0,0,0,.37-3.17c0-.33-.12-.5-.34-.5s-.66.35-1.16,1a17.08,17.08,0,0,0-1.49,2.76,22.19,22.19,0,0,0-1.21,3.61,4.85,4.85,0,0,1-.8,2,1.73,1.73,0,0,1-1.41.52,1.54,1.54,0,0,1-1.42-.7,5.22,5.22,0,0,1-.61-2.16c-.1-1-.15-2.41-.15-4.3a53.4,53.4,0,0,1,1-10,30.13,30.13,0,0,1,2.87-8.76q1.92-3.51,4.59-3.53a2.74,2.74,0,0,1,2.32,1.23A5.31,5.31,0,0,1,177,16a13.46,13.46,0,0,1-1.84,6.52,41.09,41.09,0,0,1-6,7.89c-.07,1.08-.1,2.19-.1,3.34a18.64,18.64,0,0,1,2.29-4.32,9.14,9.14,0,0,1,2.52-2.32,4.66,4.66,0,0,1,2.26-.71A2.08,2.08,0,0,1,177.65,26.91ZM171.9,16.33a29.51,29.51,0,0,0-1.32,4.32q-.65,2.94-1,5.93a21.69,21.69,0,0,0,3.19-4.95A11.53,11.53,0,0,0,174,16.78a4,4,0,0,0-.22-1.53c-.14-.35-.35-.53-.62-.53S172.36,15.26,171.9,16.33Z" transform="translate(-5.31 -7.24)"/><path d="M21.3,32.26a.7.7,0,0,0-.69.7A.7.7,0,0,0,22,33,.7.7,0,0,0,21.3,32.26Z" transform="translate(-5.31 -7.24)"/><path d="M29.65,32.26a.7.7,0,0,0-.7.7.7.7,0,1,0,.7-.7Z" transform="translate(-5.31 -7.24)"/><path d="M17.83,26.7a.7.7,0,1,0,.69.7A.7.7,0,0,0,17.83,26.7Z" transform="translate(-5.31 -7.24)"/><path d="M25.48,26.7a1.39,1.39,0,1,0,1.39,1.39A1.4,1.4,0,0,0,25.48,26.7Z" transform="translate(-5.31 -7.24)"/><path d="M44.84,26.53,30.71,24.06a2.19,2.19,0,0,1-1.21-.63,2.21,2.21,0,0,1-.62-1.2L26.42,8a1,1,0,0,0-1.89,0l-2.46,14.2a2.21,2.21,0,0,1-.62,1.2,2.19,2.19,0,0,1-1.21.63L6.11,26.53a1,1,0,0,0-.8.95,1,1,0,0,0,.8,1l9.82,1.74A2.71,2.71,0,0,1,18,33.86L13,46.34a.75.75,0,0,0,0,.26v.27a.69.69,0,0,0,1,.62l.44-.23a.72.72,0,0,0,.25-.21l8.06-11.28a3.4,3.4,0,0,1,5.53,0l8.07,11.28a.61.61,0,0,0,.24.21l.44.22a.65.65,0,0,0,.62,0,.71.71,0,0,0,.38-.62V46.6a.75.75,0,0,0-.05-.26L33,33.86a2.72,2.72,0,0,1,.6-2.93h0A2.71,2.71,0,0,1,35,30.18l9.82-1.74a1,1,0,0,0,.8-1,1,1,0,0,0-.8-.95ZM25.13,11.41a1,1,0,1,1-1.05,1A1,1,0,0,1,25.13,11.41Zm.35,3.47a1.39,1.39,0,1,1-1.4,1.39A1.4,1.4,0,0,1,25.48,14.88Zm0,4.87a2.09,2.09,0,1,1-2.09,2.09A2.09,2.09,0,0,1,25.48,19.75Zm-16.34,9a1,1,0,1,1,1-1A1,1,0,0,1,9.14,28.79Zm3.82,0a1.39,1.39,0,1,1,1.39-1.39A1.39,1.39,0,0,1,13,28.79Zm4.87.69a2.09,2.09,0,1,1,2.08-2.08A2.09,2.09,0,0,1,17.83,29.48ZM16.09,43.39a1,1,0,1,1,1-1A1,1,0,0,1,16.09,43.39Zm2.43-4.17a1.39,1.39,0,1,1,1.39-1.39A1.4,1.4,0,0,1,18.52,39.22Zm2.78-4.17A2.09,2.09,0,1,1,23.39,33,2.09,2.09,0,0,1,21.3,35.05Zm4.18-4.18a2.78,2.78,0,1,1,2.78-2.78A2.78,2.78,0,0,1,25.48,30.87ZM27.56,33a2.09,2.09,0,1,1,2.09,2.09A2.1,2.1,0,0,1,27.56,33Zm7.3,8.34a1,1,0,1,1-1,1.05A1,1,0,0,1,34.86,41.3Zm-1-3.47a1.39,1.39,0,1,1-1.39-1.39A1.4,1.4,0,0,1,33.82,37.83Zm-.7-8.35a2.09,2.09,0,1,1,2.09-2.08A2.08,2.08,0,0,1,33.12,29.48ZM38,28.79a1.39,1.39,0,1,1,1.39-1.39A1.39,1.39,0,0,1,38,28.79Zm3.82,0a1,1,0,1,1,1-1A1,1,0,0,1,41.81,28.79Z" transform="translate(-5.31 -7.24)"/><path d="M25.48,22.53a.7.7,0,1,0-.7-.69A.69.69,0,0,0,25.48,22.53Z" transform="translate(-5.31 -7.24)"/><path d="M33.12,26.7a.7.7,0,1,0,.7.7A.69.69,0,0,0,33.12,26.7Z" transform="translate(-5.31 -7.24)"/></svg>